<?xml version="1.0" encoding="UTF-8"?>
<svg width="17px" height="17px" viewBox="0 0 17 17" version="1.1" xmlns="http://www.w3.org/2000/svg" xmlns:xlink="http://www.w3.org/1999/xlink">
    <!-- Generator: Sketch 63.1 (92452) - https://sketch.com -->
    <title>clock-regular</title>
    <desc>Created with Sketch.</desc>
    <g id="Symbols" stroke="none" stroke-width="1" fill="none" fill-rule="evenodd">
        <g id="Log-element" transform="translate(-230.000000, -23.000000)" fill="#B09D5D" fill-rule="nonzero">
            <g id="Time-counter">
                <g transform="translate(230.000000, 23.000000)">
                    <g id="clock-regular">
                        <path d="M8.5,0 C3.80443548,0 0,3.80443548 0,8.5 C0,13.1955645 3.80443548,17 8.5,17 C13.1955645,17 17,13.1955645 17,8.5 C17,3.80443548 13.1955645,0 8.5,0 Z M8.5,15.3548387 C4.71270161,15.3548387 1.64516129,12.2872984 1.64516129,8.5 C1.64516129,4.71270161 4.71270161,1.64516129 8.5,1.64516129 C12.2872984,1.64516129 15.3548387,4.71270161 15.3548387,8.5 C15.3548387,12.2872984 12.2872984,15.3548387 8.5,15.3548387 Z M10.6181452,11.7766129 L7.70826613,9.66189516 C7.60201613,9.58306452 7.54032258,9.45967742 7.54032258,9.32943548 L7.54032258,3.7016129 C7.54032258,3.47540323 7.72540323,3.29032258 7.9516129,3.29032258 L9.0483871,3.29032258 C9.27459677,3.29032258 9.45967742,3.47540323 9.45967742,3.7016129 L9.45967742,8.55826613 L11.7491935,10.2239919 C11.9342742,10.3576613 11.9719758,10.6147177 11.8383065,10.7997984 L11.1939516,11.6875 C11.0602823,11.8691532 10.8032258,11.9102823 10.6181452,11.7766129 Z" id="Shape"></path>
                    </g>
                </g>
            </g>
        </g>
    </g>
</svg>