<?xml version="1.0" encoding="UTF-8"?>
<svg width="18px" height="16px" viewBox="0 0 18 16" version="1.1" xmlns="http://www.w3.org/2000/svg" xmlns:xlink="http://www.w3.org/1999/xlink">
    <title>edit</title>
    <g id="Symbols" stroke="none" stroke-width="1" fill="none" fill-rule="evenodd">
        <g id="edit" fill="#FFFFFF" fill-rule="nonzero">
            <path d="M12.58125,2.6 L15.4,5.41875 C15.51875,5.5375 15.51875,5.73125 15.4,5.85 L8.575,12.675 L5.675,12.996875 C5.2875,13.040625 4.959375,12.7125 5.003125,12.325 L5.325,9.425 L12.15,2.6 C12.26875,2.48125 12.4625,2.48125 12.58125,2.6 Z M17.64375,1.884375 L16.11875,0.359375 C15.64375,-0.115625 14.871875,-0.115625 14.39375,0.359375 L13.2875,1.465625 C13.16875,1.584375 13.16875,1.778125 13.2875,1.896875 L16.10625,4.715625 C16.225,4.834375 16.41875,4.834375 16.5375,4.715625 L17.64375,3.609375 C18.11875,3.13125 18.11875,2.359375 17.64375,1.884375 Z M12,10.81875 L12,14 L2,14 L2,4 L9.18125,4 C9.28125,4 9.375,3.959375 9.446875,3.890625 L10.696875,2.640625 C10.934375,2.403125 10.765625,2 10.43125,2 L1.5,2 C0.671875,2 0,2.671875 0,3.5 L0,14.5 C0,15.328125 0.671875,16 1.5,16 L12.5,16 C13.328125,16 14,15.328125 14,14.5 L14,9.56875 C14,9.234375 13.596875,9.06875 13.359375,9.303125 L12.109375,10.553125 C12.040625,10.625 12,10.71875 12,10.81875 Z" id="Shape"></path>
        </g>
    </g>
</svg>