<?xml version="1.0" encoding="UTF-8"?>
<svg width="18px" height="19px" viewBox="0 0 18 19" version="1.1" xmlns="http://www.w3.org/2000/svg" xmlns:xlink="http://www.w3.org/1999/xlink">
    <title>Shape</title>
    <g id="Symbols" stroke="none" stroke-width="1" fill="none" fill-rule="evenodd">
        <g id="power-off-solid" fill="#FFFFFF" fill-rule="nonzero">
            <path d="M14.2258065,1.96330645 C16.5120968,3.59637097 17.9999934,6.26733871 17.9999934,9.29032258 C17.9999934,14.2548387 13.9790323,18.2794355 9.01814516,18.2903445 C4.06451613,18.3012097 0.00725806452,14.2620968 -6.62357669e-06,9.30483871 C-0.00362903226,6.28185484 1.48427419,3.60362903 3.76693548,1.96693548 C4.19153226,1.66572581 4.78306452,1.79274194 5.03709677,2.24637097 L5.61048387,3.26612903 C5.82459677,3.64717742 5.72298387,4.12983871 5.37096774,4.39112903 C3.86491935,5.50887097 2.90322581,7.27983871 2.90322581,9.28669355 C2.89959677,12.6362903 5.60685484,15.3870968 8.99999338,15.3870968 C12.3241935,15.3870968 15.1185484,12.6943548 15.0967742,9.25040323 C15.0858871,7.37056452 14.2004032,5.55604839 12.6254032,4.3875 C12.2733871,4.12620968 12.1754032,3.64354839 12.3895161,3.26612903 L12.9629032,2.24637097 C13.2169355,1.79637097 13.8048387,1.66209677 14.2258065,1.96330645 Z M10.4516129,9.58064516 L10.4516129,0.870967742 C10.4516129,0.388306452 10.0633065,0 9.58064516,0 L8.41935484,0 C7.93669355,0 7.5483871,0.388306452 7.5483871,0.870967742 L7.5483871,9.58064516 C7.5483871,10.0633065 7.93669355,10.4516129 8.41935484,10.4516129 L9.58064516,10.4516129 C10.0633065,10.4516129 10.4516129,10.0633065 10.4516129,9.58064516 Z" id="Shape"></path>
        </g>
    </g>
</svg>