<?xml version="1.0" encoding="UTF-8"?>
<svg width="178px" height="157px" viewBox="0 0 178 157" version="1.1" xmlns="http://www.w3.org/2000/svg" xmlns:xlink="http://www.w3.org/1999/xlink">
    <title>Logo vertical</title>
    <g id="Logo-vertical" stroke="none" stroke-width="1" fill="none" fill-rule="evenodd">
        <g id="Group" transform="translate(27.000000, 4.000000)">
            <text id="Title" font-family="Merriweather-Black, Merriweather" font-size="20" font-weight="700">
                <tspan x="0.43" y="145" fill="#221E1F">Log and</tspan>
                <tspan x="81.25" y="145" fill="#000000"> </tspan>
                <tspan x="85.99" y="145" fill="#50E3C2">ROI</tspan>
            </text>
            <g id="tycoon" transform="translate(16.000000, 0.000000)" fill-rule="nonzero">
                <path d="M91,55.0003917 C91,59.418156 87.418156,63 82.9996083,63 C78.581844,63 75,59.418156 75,55.0003917 C75,50.581844 78.581844,47 82.9996083,47 C87.418156,47 91,50.581844 91,55.0003917 L91,55.0003917 Z" id="Path" fill="#FFFFFF"></path>
                <polygon id="Path" fill="#EBEBEB" points="52.9555281 88 59 96 52.9555281 104 37.0444719 104 31 96 37.0444719 88"></polygon>
                <path d="M52.9555281,87 L37.0444719,87 L31,94.8426642 L32.9920264,97.4274863 C33.8418214,97.8027148 34.7851647,98 35.7913975,98 C37.4752653,98 39.3218597,97.439865 41.2840136,96.333521 C42.2996799,96.7776058 43.4120389,97.0135743 44.5629176,97.0135743 L45.4362963,97.0135743 C46.5879611,97.0135743 47.7003201,96.7776058 48.7159864,96.333521 C50.6773541,97.439865 52.5239486,98 54.2086025,98 C55.2140491,98 56.1573923,97.8027148 57.0079736,97.4274863 L59,94.8426642 L52.9555281,87 Z" id="Path" fill="#D5D4DA"></path>
                <path d="M38,88 L38,104 L25,104 C25,93.2307387 33.5491612,88 33.5491612,88 L38,88 Z" id="Path" fill="#4B5562"></path>
                <path d="M67,104 L54,104 L54,88 L58.4508388,88 C58.4508388,88 67,93.2307387 67,104 L67,104 Z" id="Path" fill="#4B5562"></path>
                <path d="M17,55.0003917 C17,59.418156 13.418156,63 9.00039169,63 C4.58184399,63 1,59.418156 1,55.0003917 C1,50.581844 4.58184399,47 9.00039169,47 C13.418156,47 17,50.581844 17,55.0003917 L17,55.0003917 Z" id="Path" fill="#FFFFFF"></path>
                <path d="M82,53.5004002 C82,73.6584248 65.6584248,90 45.5004002,90 C25.3423756,90 9,73.6584248 9,53.5004002 C9,33.3415752 25.3423756,17 45.5004002,17 C65.6584248,17 82,33.3415752 82,53.5004002 Z" id="Path"></path>
                <path d="M10,47 L82,47 C80.6659427,37.7694672 75.915358,29.6549868 69.0799099,24 L22.920888,24 C16.0854398,29.6541834 11.3348552,37.7694672 10,47 Z" id="Path" fill="#FFFFFF"></path>
                <polygon id="Path" fill="#EBEBEB" points="78 18.7093566 76.7240323 31.5015348 45 37 13.2767713 31.5015348 12 18.7093566 45 10"></polygon>
                <polygon id="Path" fill="#D5D4DA" points="21.2236695 31.5015348 19.985304 18.7093566 49 10.814741 46.007348 10 14 18.7093566 15.2383656 31.5015348 46.007348 37 49 36.4645753"></polygon>
                <path d="M73,55.9996054 C73,61.5229415 68.5229415,66 62.9996054,66 C57.4770585,66 53,61.5229415 53,55.9996054 C53,50.4770585 57.4770585,46 62.9996054,46 C68.5229415,46 73,50.4770585 73,55.9996054 Z" id="Path" fill="#50E3C2"></path>
                <path d="M61.3111559,95.2921648 C62.2110697,94.1618371 62.768569,92.7553101 63,91.0292587 C60.7854891,88.3307076 58.5296816,87 58.5296816,87 L54,87 L54,97.9009706 C54.4671638,97.9667323 54.9248638,98 55.3713795,98 C57.8121595,98 59.9217093,97.0383316 61.3111559,95.2921648 Z" id="Path" fill="#393F50"></path>
                <path d="M38,87 L33.4698853,87 C33.4698853,87 31.2138623,88.3299338 29,91.0292587 C29.2305927,92.7553101 29.7890057,94.1610635 30.6881452,95.2921648 C32.078585,97.0383316 34.187476,98 36.6284894,98 C37.0759081,98 37.5327915,97.9659586 38,97.900197 L38,87 Z" id="Path" fill="#393F50"></path>
                <path d="M63.4995891,45 C61.0405738,45 58.7820261,46.1249999 57,48 L70,48 C68.2179739,46.1249999 65.9594262,45 63.4995891,45 L63.4995891,45 Z" id="Path" fill="#80C4E6"></path>
                <path d="M86.3427582,30 L3.65724177,30 C2.18985736,30 1,31.1247644 1,32.5118734 L1,37.4881266 C1,38.8752356 2.18985736,40 3.65724177,40 L86.3419608,40 C87.8101426,40 89,38.8752356 89,37.4881266 L89,32.5118734 C89,31.1247644 87.8101426,30 86.3427582,30 Z" id="Path" fill="#4B5562"></path>
                <path d="M8.27678896,37.4881266 L8.27678896,32.5118734 C8.27678896,31.1247644 9.49618598,30 11,30 L4.72321104,30 C3.21939702,30 2,31.1247644 2,32.5118734 L2,37.4881266 C2,38.8752356 3.21939702,40 4.72321104,40 L11,40 C9.49618598,40 8.27678896,38.8752356 8.27678896,37.4881266 Z" id="Path" fill="#393F50"></path>
                <path d="M78.9639515,8.10925 L78.0124166,17 L12.9882344,17 L12.0359079,8.10925 C11.6290119,4.30719452 14.7321869,1 18.7053593,1 L72.2952917,1 C76.2692556,1 79.3716391,4.30719452 78.9639515,8.10925 Z" id="Path" fill="#4B5562"></path>
                <path d="M25,1 L18.8180943,1 C14.7781223,1 11.6227746,4.30719452 12.0365117,8.10925 L13.0048493,17 L19.1867549,17 L18.2184173,8.10925 C17.8046803,4.30719452 20.960028,1 25,1 Z" id="Path" fill="#393F50"></path>
                <path d="M63.1628657,70.685346 C59.6674614,69.2259387 58.6985427,64.6844034 56.5061108,61.8368377 C53.8312466,58.3648409 49.2874641,58.1470906 46.2647622,60.8153325 C45.5455731,61.4501707 44.4542222,61.4501707 43.7350331,60.8153325 C40.7123312,58.1470906 36.1685487,58.3648409 33.4944954,61.8368377 C31.3012526,64.6844034 30.3323339,69.2259387 26.8369296,70.685346 C25.9928756,71.0383899 25.735038,72.106327 26.3050379,72.8156166 C28.5526048,75.6095454 34.1455762,80.2271331 43.5161144,73.5961555 C44.4031411,72.9685222 45.5966543,72.9685222 46.4836809,73.5961555 C55.8550299,80.2271331 61.4471905,75.6095454 63.6947575,72.8156166 C64.2647574,72.106327 64.0077304,71.0383899 63.1628657,70.685346 L63.1628657,70.685346 Z" id="Path" fill="#B09D5D"></path>
                <path d="M49,92.4508574 C49,92.4508574 58,99.5768315 58,90.0001379 C58,80.4234443 49,87.548641 49,87.548641 L49,92.4508574 Z" id="Path" fill="#50E3C2"></path>
                <path d="M43,92.4508574 C43,92.4508574 34,99.5768315 34,90.0001379 C34,80.4234443 43,87.548641 43,87.548641 L43,92.4508574 Z" id="Path" fill="#50E3C2"></path>
                <path d="M45.9367288,85 L45.0624835,85 C42.8185875,85 41,87.0144438 41,89.5 C41,91.9855565 42.8185875,94 45.0624835,94 L45.9367288,94 C48.1806247,94 50,91.9855565 50,89.5 C49.9992122,87.0144438 48.1806247,85 45.9367288,85 Z" id="Path" fill="#50E3C2"></path>
                <path d="M28.5,58 C29.3289064,58 30,57.3528157 30,56.5551235 L30,53.4448765 C30,52.6464318 29.3289064,52 28.5,52 C27.6718752,52 27,52.6464318 27,53.4448765 L27,56.5551235 C27,57.3528157 27.6718752,58 28.5,58 Z" id="Path" fill="#000000"></path>
                <path d="M65,56.5551235 L65,53.4448765 C65,52.6464318 64.3289062,52 63.5,52 C62.671875,52 62,52.6464318 62,53.4448765 L62,56.5551235 C62,57.3528157 62.671875,58 63.5,58 C64.3289062,58 65,57.3528157 65,56.5551235 Z" id="Path" fill="#000000"></path>
                <path d="M92,54.8752212 C92,49.7755051 88.0726461,45.5842209 83.0991131,45.1900864 C82.9437399,44.4226455 82.7636666,43.6600112 82.5604863,42.9029846 L87.3053419,42.9029846 C89.6136284,42.9029846 91.4908542,41.015625 91.4908542,38.6956787 L91.4908542,33.4077073 C91.4908542,31.087761 89.6136284,29.2004014 87.3053419,29.2004014 L79.1534331,29.2004014 C79.1534331,29.2004014 81.2027644,9.18846141 81.2035612,9.17564402 C81.6991616,4.33868408 77.8012887,0 72.9695836,0 L65.428809,0 C64.5842167,0 63.8989815,0.688934326 63.8989815,1.53808594 C63.8989815,2.38723755 64.5842167,3.07617188 65.428809,3.07617188 L72.9695836,3.07617188 C76.0244579,3.07617188 78.4729786,5.80947876 78.1606389,8.8608169 L77.3439341,16.8356323 L14.6560659,16.8356323 C14.6560659,16.8356323 13.8401579,8.86802684 13.8393611,8.8608169 C13.5270214,5.80547338 15.9811196,3.07617188 19.0304164,3.07617188 L59.3094991,3.07617188 C60.1548881,3.07617188 60.8393265,2.38723755 60.8393265,1.53808594 C60.8393265,0.688934326 60.1548881,0 59.3094991,0 C59.3094991,0 19.0535231,0 19.0304164,0 C14.1947274,0 10.3008384,4.3434907 10.7956419,9.17564402 L12.8465669,29.2004014 L4.69386134,29.2004014 C2.38637156,29.2004014 0.509145759,31.087761 0.509145759,33.4077073 L0.509145759,38.6956787 C0.509145759,41.015625 2.38637156,42.9029846 4.69386134,42.9029846 L9.43951367,42.9029846 C9.2363334,43.6600112 9.05626006,44.4226455 8.90088691,45.1900864 C3.92735393,45.5842209 0,49.7755051 0,54.8752212 C0,60.2336885 4.33610466,64.5932007 9.66580065,64.5932007 C9.77655383,64.5932007 9.88730682,64.5899963 9.99806,64.585991 C13.3031248,74.7710037 20.8008729,83.2833481 30.787778,87.6917266 C28.1942423,90.1959229 24.1537448,95.3925705 24.1537448,103.461914 C24.1537448,104.311867 24.8389802,105 25.6835723,105 L66.3164277,105 C67.1610198,105 67.8462552,104.311867 67.8462552,103.461914 C67.8462552,95.3925705 63.8057577,90.1959229 61.212222,87.6925278 C67.372168,84.9728394 72.5855331,80.6926345 76.4515348,75.4214858 L77.2339777,76.2081528 C78.8060347,77.7886963 80.8713018,78.5785674 82.9365689,78.5785674 C85.001836,78.5785674 87.0663064,77.7886963 88.6383634,76.2081528 C91.7824777,73.0470657 91.7824777,67.9032898 88.6383634,64.7422027 L87.1818402,63.2770156 C90.0598281,61.592331 92,58.4576797 92,54.8752212 L92,54.8752212 Z M3.56880072,38.6956787 L3.56880072,33.4077073 C3.56880072,32.7836609 4.07316566,32.2765732 4.69386134,32.2765732 L22.5936396,32.2765732 C23.4390286,32.2765732 24.1234671,31.5876389 24.1234671,30.7384873 C24.1234671,29.8885346 23.4390286,29.2004014 22.5936396,29.2004014 L15.9221576,29.2004014 L14.971593,19.9118042 L77.028407,19.9118042 L76.0778424,29.2004014 L28.7129495,29.2004014 C27.8683572,29.2004014 27.183122,29.8885346 27.183122,30.7384873 C27.183122,31.5876389 27.8683572,32.2765732 28.7129495,32.2765732 L87.3053419,32.2765732 C87.9260376,32.2765732 88.4311993,32.7836609 88.4311993,33.4077073 L88.4311993,38.6956787 C88.4311993,39.3197251 87.9260376,39.8268127 87.3053419,39.8268127 L4.69386134,39.8268127 C4.0739624,39.8268127 3.56880072,39.3197251 3.56880072,38.6956787 L3.56880072,38.6956787 Z M9.12398675,61.4945984 C5.73446264,61.2166213 3.05965496,58.3543396 3.05965496,54.8752212 C3.05965496,51.6492461 5.35917699,48.9527893 8.39652176,48.35598 C8.3542922,48.7148667 8.31843692,49.0745544 8.28656551,49.4350434 C7.93199617,53.463707 8.2116676,57.5556565 9.12398675,61.4945984 Z M36.9389593,85.7555007 C38.1699923,85.8844756 39.2599944,86.5493774 40.2671308,87.2270967 C40.2711149,87.2303008 40.3173283,87.2583389 40.3165418,87.2607422 C40.0527957,87.9240417 39.918139,88.6410142 39.918139,89.3555832 C39.918139,90.0685501 40.051202,90.7855225 40.3157349,91.4472197 C39.9890529,91.6667175 39.6161574,91.9006348 39.2161712,92.1201323 C38.4544448,92.5374985 37.5692164,92.9708862 36.6664587,92.9708862 C36.2776276,92.9708862 35.0959953,92.9700852 35.0959953,89.3555832 C35.0959953,88.4119033 35.1374282,87.3576736 35.5509595,86.4916992 C35.8250536,85.9181213 36.3182637,85.6898118 36.9389593,85.7555007 L36.9389593,85.7555007 Z M44.2223723,87.1582031 C44.616781,86.9082642 45.0757292,86.7616653 45.5577842,86.7616653 L46.4438093,86.7616653 C47.8413705,86.7616653 49.0230029,87.9512788 49.0230029,89.3555832 C49.0230029,90.7606887 47.8397768,91.9478989 46.4422158,91.949501 L45.5577842,91.949501 C44.1777523,91.949501 42.977794,90.7342529 42.977794,89.3555832 C42.977794,88.4519578 43.4861428,87.6252366 44.2223723,87.1582031 L44.2223723,87.1582031 Z M52.000589,87.054062 C53.0133029,86.4091873 54.1248181,85.7330703 55.363819,85.7418823 C56.8984271,85.7538987 56.9040047,88.3269883 56.9040047,89.3555832 C56.9040047,90.9233093 56.6577981,91.782875 56.4378854,92.2386933 C56.1884917,92.7561951 55.6952816,93.0077363 55.1367353,92.9620742 C54.1431442,92.8803635 53.2260444,92.3957061 52.3830458,91.892624 C52.1304648,91.7412185 51.8962101,91.5898132 51.6850621,91.4464187 C51.8364511,91.0667038 51.9432204,90.6725693 52.0085567,90.2688218 C52.1718978,89.2610549 52.0611447,88.2092285 51.6834684,87.2607422 C51.7758955,87.1982573 51.9894339,87.0604707 52.000589,87.054062 Z M32.0960991,90.7342529 C32.0984895,90.7590867 32.374974,92.6160049 32.7446823,93.4467315 C33.4115914,94.9447632 34.7159287,95.934906 36.3620869,96.0374451 C36.3764291,96.0382461 36.3915679,96.0398484 36.4059101,96.0398484 L36.4059101,101.923828 L27.2707683,101.923828 C27.6763321,96.5781785 30.1383981,92.8763579 32.0960991,90.7342529 Z M39.4663618,95.4093933 C40.5244925,94.9695969 41.4838218,94.3791963 42.1810089,93.8961411 C43.1435253,94.6259307 44.3538418,95.0256729 45.5577842,95.0256729 L46.4422158,95.0256729 C47.6429709,95.0256729 48.8588651,94.6243286 49.8189911,93.8961411 C50.5161782,94.378395 51.4755075,94.9687959 52.5336382,95.4093933 L52.5336382,101.923828 L39.4663618,101.923828 L39.4663618,95.4093933 Z M64.7276381,101.923828 L55.5932931,101.923828 L55.5932931,96.0398484 L55.5980738,96.0398484 L55.605245,96.0398484 C55.6849235,96.0350418 55.7669924,96.0286331 55.8506548,96.0198213 C55.8554354,96.0198213 55.8594193,96.01902 55.8642001,96.018219 C57.0171483,95.8940505 58.4505648,95.314064 59.2808148,93.3898545 C59.6019193,92.6592637 59.8074897,91.7860794 59.9023072,90.7574844 C61.8576179,92.912407 64.3188873,96.6230393 64.7276381,101.923828 Z M59.2266334,85.1995469 C58.2513684,83.0726624 56.5175639,82.6641084 55.3335413,82.6641084 C53.449941,82.6641084 51.6077737,83.6053848 50.0803367,84.6371841 C50.0739624,84.6419907 49.8962795,84.7613525 49.8189911,84.8142241 C49.7887134,84.7917939 49.7560453,84.7717666 49.7257673,84.7493362 C48.7767962,84.0604019 47.6126931,83.6854934 46.4422158,83.6854934 L45.5577842,83.6854934 C44.3626065,83.6854934 43.1435253,84.0876389 42.1810089,84.8142241 C42.1523246,84.8366548 41.4870089,84.3592071 41.4288437,84.3231582 C40.01455,83.4499741 38.3707822,82.6641084 36.6664587,82.6641084 C35.4824361,82.6641084 33.7486316,83.0726624 32.7733666,85.2003479 C21.1411002,80.3930283 13.0194693,69.5911789 11.4673318,57.1687317 C10.8721333,52.4046707 11.2649483,47.5076294 12.6170928,42.9029846 L79.3829072,42.9029846 C79.8450426,44.4763184 80.1940346,46.0792922 80.4306797,47.7014922 C81.5509597,55.3590774 80.0713295,63.3419038 76.2515417,70.0982666 C76.1591146,70.2616882 76.0650938,70.4243088 75.9702763,70.5869292 L70.190397,64.7758484 C73.0006583,62.6393508 74.8205155,59.2531587 74.8205155,55.446396 C74.8205155,49.0000535 69.6039631,43.7561416 63.192233,43.7561416 C56.7812999,43.7561416 51.5647475,49.0000535 51.5647475,55.446396 C51.5647475,56.068039 51.6165384,56.6840745 51.7129496,57.2912979 C49.7162059,57.3257446 47.7720502,58.1044006 46.2238966,59.4958877 C46.1458117,59.5663833 46.0589622,59.580803 46,59.580803 C45.9410378,59.580803 45.8549852,59.5663833 45.7769002,59.4958877 C44.1928913,58.0723572 42.1945541,57.2880935 40.1492066,57.2880935 C37.5652324,57.2880935 35.1326474,58.544197 33.4761312,60.7343674 C32.6665975,61.8038179 32.0323563,63.0447007 31.4188318,64.244728 C30.3391879,66.3571929 29.3193029,68.3526992 27.5552207,69.1033174 C25.8158387,69.84272 25.2612762,72.1258164 26.4309568,73.6070251 C27.8372826,75.3886414 30.9088894,78.3766938 35.6760549,78.3766938 C38.7484584,78.3766938 42.0312132,77.1334077 45.4334857,74.682083 C45.7657453,74.4425583 46.2342547,74.4425583 46.567311,74.682083 C49.9687868,77.1334077 53.2515416,78.3766938 56.3247418,78.3766938 C61.0911106,78.3766938 64.1627174,75.3886414 65.5698399,73.6070251 C66.7403172,72.1250152 66.1817709,69.8419189 64.445576,69.1033174 C63.5316636,68.7147903 62.8185408,67.9906082 62.1922678,67.0909883 C62.5237304,67.1190261 62.8567865,67.1366501 63.192233,67.1366501 C64.6814244,67.1366501 66.1052795,66.8506621 67.4151943,66.3355637 L74.2627659,73.2209014 C70.5282339,78.4543992 65.3666598,82.6625061 59.2266334,85.1995469 Z M53.3025358,60.5853652 C55.6243678,61.304741 56.8259198,63.6278916 57.8601468,65.6498337 C59.0521374,67.9825974 60.3995011,70.6181716 63.0512021,71.8462373 C61.734913,73.4572219 59.5294118,75.2997207 56.3239451,75.2997207 C53.9033119,75.2997207 51.2205363,74.2502976 48.3489226,72.1818923 C46.9593293,71.1805344 45.039874,71.1805344 43.6502807,72.1818923 C40.778667,74.2502976 38.0958914,75.2997207 35.6752582,75.2997207 C32.4697915,75.2997207 30.2642902,73.4572219 28.9487979,71.8462373 C31.6004989,70.6181716 32.9478626,67.9825974 34.1398532,65.6498337 C35.4202869,63.1456375 36.9596756,60.3642654 40.1484099,60.3642654 C41.4399986,60.3642654 42.7148548,60.869751 43.7371302,61.7893982 C45.0056121,62.9293442 46.9951846,62.927742 48.2620731,61.7893982 C49.6229821,60.5669404 51.5392503,60.0398254 53.3025358,60.5853652 Z M60.2098664,63.5221482 C60.2018984,63.5069275 60.1947274,63.4933091 60.1867595,63.4788894 C58.9764428,61.1709595 57.4601608,58.9767837 54.9877364,57.9289627 C54.7463105,57.1246719 54.6244024,56.2923432 54.6244024,55.446396 C54.6244024,50.6959534 58.468094,46.8315125 63.192233,46.8315125 C67.917169,46.8315125 71.7600638,50.6959534 71.7600638,55.446396 C71.7600638,60.1960373 67.917169,64.0604783 63.192233,64.0604783 C62.1643803,64.0604783 61.1636181,63.8794326 60.2098664,63.5221482 Z M86.4750917,66.9171524 C88.4264187,68.8790132 88.4264187,72.0713425 86.4750917,74.0324021 C84.5237649,75.9942627 81.3493729,75.9942627 79.3980461,74.0324021 L78.1972909,72.8251648 C79.7797063,70.2520752 81.0609368,67.4867249 82.00194,64.585991 C82.6760201,64.6100234 83.3501005,64.5611572 84.0138224,64.4433975 L86.4750917,66.9171524 Z M82.8760133,61.4945984 C83.240941,59.9180603 83.5022865,58.3166885 83.6648306,56.7008972 C83.9062564,54.2872239 83.9245825,51.8519211 83.7134345,49.4350434 C83.6815631,49.0745544 83.6457078,48.7148667 83.6034782,48.35598 C86.640823,48.9527893 88.940345,51.6492461 88.940345,54.8744202 C88.940345,58.3543396 86.2655374,61.2166213 82.8760133,61.4945984 Z" id="Shape" fill="#000000"></path>
            </g>
        </g>
    </g>
</svg>