<?xml version="1.0" encoding="UTF-8"?>
<svg width="24px" height="24px" viewBox="0 0 24 24" version="1.1" xmlns="http://www.w3.org/2000/svg" xmlns:xlink="http://www.w3.org/1999/xlink">
    <!-- Generator: Sketch 64 (93537) - https://sketch.com -->
    <title>Group 4</title>
    <desc>Created with Sketch.</desc>
    <g id="Symbols" stroke="none" stroke-width="1" fill="none" fill-rule="evenodd">
        <g id="Reset-icon">
            <g id="Group-4">
                <g id="Stop-icon" fill="#50E3C2">
                    <g id="Group-3">
                        <g id="Pause-icon">
                            <g id="Group-2">
                                <g id="Pause-icon">
                                    <g id="Add-icon">
                                        <circle id="Oval" cx="12" cy="12" r="12"></circle>
                                    </g>
                                </g>
                            </g>
                        </g>
                    </g>
                </g>
                <g id="undo-solid" transform="translate(6.000000, 6.000000)" fill="#FFFFFF" fill-rule="nonzero">
                    <path d="M5.04553663,5.33068515 L0.285148515,5.33068515 C0.127675248,5.33068515 0,5.2030099 0,5.04553663 L0,0.285148515 C0,0.127675248 0.127675248,0 0.285148515,0 L1.42574257,0 C1.58321584,0 1.71089109,0.127675248 1.71089109,0.285148515 L1.71089109,2.14127525 C2.79856634,0.933362376 4.37845545,0.17750495 6.13485149,0.190265347 C9.38806337,0.213885149 11.9910416,2.84269307 11.9841405,6.09597624 C11.9772119,9.34474455 9.34146535,11.9762376 6.09108119,11.9762376 C4.56817426,11.9762376 3.18028515,11.398503 2.13440792,10.4503366 C2.01324356,10.3405069 2.00765941,10.1520238 2.12331089,10.036396 L2.93044752,9.22925941 C3.0367604,9.12294653 3.20756436,9.11717228 3.32017426,9.21678416 C4.05766337,9.8693703 5.02764356,10.2653465 6.09108119,10.2653465 C8.4024,10.2653465 10.2732594,8.39486733 10.2732594,6.08316832 C10.2732594,3.77187327 8.4027802,1.9009901 6.09108119,1.9009901 C4.70107723,1.9009901 3.47056634,2.57764752 2.71031287,3.61979406 L5.04553663,3.61979406 C5.2030099,3.61979406 5.33068515,3.74746931 5.33068515,3.90494257 L5.33068515,5.04553663 C5.33068515,5.2030099 5.2030099,5.33068515 5.04553663,5.33068515 Z" id="Path"></path>
                </g>
            </g>
        </g>
    </g>
</svg>