<?xml version="1.0" encoding="UTF-8"?>
<svg width="16px" height="18px" viewBox="0 0 16 18" version="1.1" xmlns="http://www.w3.org/2000/svg" xmlns:xlink="http://www.w3.org/1999/xlink">
    <title>trash</title>
    <g id="Symbols" stroke="none" stroke-width="1" fill="none" fill-rule="evenodd">
        <g id="trash" fill="#FFFFFF" fill-rule="nonzero">
            <path d="M15.1875,1.125 L10.96875,1.125 L10.6382813,0.467578125 C10.4954916,0.180893931 10.2026978,-0.000229706215 9.88242188,-6.19702717e-06 L5.8640625,-6.19702717e-06 C5.54438896,-0.00122888822 5.25214737,0.180397898 5.11171875,0.467578125 L4.78125,1.125 L0.5625,1.125 C0.251839828,1.125 0,1.37683983 0,1.6875 L0,2.8125 C0,3.12316017 0.251839828,3.375 0.5625,3.375 L15.1875,3.375 C15.4981602,3.375 15.75,3.12316017 15.75,2.8125 L15.75,1.6875 C15.75,1.37683983 15.4981602,1.125 15.1875,1.125 Z M1.8703125,16.4179688 C1.92599649,17.3071709 2.66335293,18 3.55429687,18 L12.1957031,18 C13.0866471,18 13.8240035,17.3071709 13.8796875,16.4179688 L14.625,4.5 L1.125,4.5 L1.8703125,16.4179688 Z" id="Shape"></path>
        </g>
    </g>
</svg>