<?xml version="1.0" encoding="UTF-8"?>
<svg width="24px" height="24px" viewBox="0 0 24 24" version="1.1" xmlns="http://www.w3.org/2000/svg" xmlns:xlink="http://www.w3.org/1999/xlink">
    <!-- Generator: Sketch 64 (93537) - https://sketch.com -->
    <title>Trash button</title>
    <desc>Created with Sketch.</desc>
    <g id="Symbols" stroke="none" stroke-width="1" fill="none" fill-rule="evenodd">
        <g id="Trash-button">
            <g>
                <g id="Group-3" fill="#50E3C2">
                    <g id="Pause-icon">
                        <g id="Group-2">
                            <g id="Pause-icon">
                                <g id="Add-icon">
                                    <circle id="Oval" cx="12" cy="12" r="12"></circle>
                                </g>
                            </g>
                        </g>
                    </g>
                </g>
                <g id="trash-alt-solid" transform="translate(7.000000, 6.000000)" fill="#FFFFFF" fill-rule="nonzero">
                    <path d="M0.714285714,10.3571429 C0.714285714,10.9488765 1.19398063,11.4285714 1.78571429,11.4285714 L8.21428571,11.4285714 C8.80601937,11.4285714 9.28571429,10.9488765 9.28571429,10.3571429 L9.28571429,2.85714286 L0.714285714,2.85714286 L0.714285714,10.3571429 Z M6.78571429,4.64285714 C6.78571429,4.44561259 6.94561259,4.28571429 7.14285714,4.28571429 C7.3401017,4.28571429 7.5,4.44561259 7.5,4.64285714 L7.5,9.64285714 C7.5,9.8401017 7.3401017,10 7.14285714,10 C6.94561259,10 6.78571429,9.8401017 6.78571429,9.64285714 L6.78571429,4.64285714 Z M4.64285714,4.64285714 C4.64285714,4.44561259 4.80275545,4.28571429 5,4.28571429 C5.19724455,4.28571429 5.35714286,4.44561259 5.35714286,4.64285714 L5.35714286,9.64285714 C5.35714286,9.8401017 5.19724455,10 5,10 C4.80275545,10 4.64285714,9.8401017 4.64285714,9.64285714 L4.64285714,4.64285714 Z M2.5,4.64285714 C2.5,4.44561259 2.6598983,4.28571429 2.85714286,4.28571429 C3.05438741,4.28571429 3.21428571,4.44561259 3.21428571,4.64285714 L3.21428571,9.64285714 C3.21428571,9.8401017 3.05438741,10 2.85714286,10 C2.6598983,10 2.5,9.8401017 2.5,9.64285714 L2.5,4.64285714 Z M9.64285714,0.714285714 L6.96428571,0.714285714 L6.75446429,0.296875 C6.66380421,0.11485329 6.47790335,-0.000145845216 6.27455357,-3.93462043e-06 L3.72321429,-3.93462043e-06 C3.52024696,-0.000780246488 3.33469674,0.114538348 3.24553571,0.296875 L3.03571429,0.714285714 L0.357142857,0.714285714 C0.159898304,0.714285714 0,0.874184018 0,1.07142857 L0,1.78571429 C0,1.98295884 0.159898304,2.14285714 0.357142857,2.14285714 L9.64285714,2.14285714 C9.8401017,2.14285714 10,1.98295884 10,1.78571429 L10,1.07142857 C10,0.874184018 9.8401017,0.714285714 9.64285714,0.714285714 Z" id="Shape"></path>
                </g>
            </g>
        </g>
    </g>
</svg>