<?xml version="1.0" encoding="UTF-8"?>
<svg width="24px" height="24px" viewBox="0 0 24 24" version="1.1" xmlns="http://www.w3.org/2000/svg" xmlns:xlink="http://www.w3.org/1999/xlink">
    <title>Dropdown</title>
    <g id="Symbols" stroke="none" stroke-width="1" fill="none" fill-rule="evenodd">
        <g id="User-settings">
            <g id="Dropdown">
                <g id="Settings">
                    <circle id="Oval" fill="#50E3C2" cx="12" cy="12" r="12"></circle>
                    <g id="cog-solid" transform="translate(6.000000, 6.000000)" fill="#000000" fill-rule="nonzero">
                        <path d="M11.8336134,7.75714286 L10.7596639,7.13697479 C10.8680672,6.55210084 10.8680672,5.95210084 10.7596639,5.36722689 L11.8336134,4.74705882 C11.9571429,4.67647059 12.012605,4.5302521 11.9722689,4.39411765 C11.692437,3.49663866 11.2159664,2.68487395 10.5932773,2.0092437 C10.497479,1.90588235 10.3411765,1.88067227 10.2201681,1.9512605 L9.14621849,2.57142857 C8.69495798,2.18319328 8.17563025,1.88319328 7.61344538,1.68655462 L7.61344538,0.448739496 C7.61344538,0.307563025 7.51512605,0.184033613 7.37647059,0.153781513 C6.4512605,-0.0529411765 5.50336134,-0.0428571429 4.62352941,0.153781513 C4.48487395,0.184033613 4.38655462,0.307563025 4.38655462,0.448739496 L4.38655462,1.68907563 C3.82689076,1.88823529 3.30756303,2.18823529 2.85378151,2.57394958 L1.78235294,1.95378151 C1.65882353,1.88319328 1.50504202,1.90588235 1.4092437,2.01176471 C0.786554622,2.68487395 0.310084034,3.49663866 0.0302521008,4.39663866 C-0.012605042,4.53277311 0.0453781513,4.6789916 0.168907563,4.74957983 L1.24285714,5.3697479 C1.13445378,5.95462185 1.13445378,6.55462185 1.24285714,7.1394958 L0.168907563,7.75966387 C0.0453781513,7.8302521 -0.0100840336,7.97647059 0.0302521008,8.11260504 C0.310084034,9.01008403 0.786554622,9.82184874 1.4092437,10.497479 C1.50504202,10.6008403 1.66134454,10.6260504 1.78235294,10.5554622 L2.85630252,9.93529412 C3.30756303,10.3235294 3.82689076,10.6235294 4.38907563,10.8201681 L4.38907563,12.0605042 C4.38907563,12.2016807 4.48739496,12.3252101 4.62605042,12.3554622 C5.5512605,12.5621849 6.49915966,12.5521008 7.3789916,12.3554622 C7.51764706,12.3252101 7.61596639,12.2016807 7.61596639,12.0605042 L7.61596639,10.8201681 C8.17563025,10.6210084 8.69495798,10.3210084 9.1487395,9.93529412 L10.2226891,10.5554622 C10.3462185,10.6260504 10.5,10.6033613 10.5957983,10.497479 C11.2184874,9.82436975 11.694958,9.01260504 11.9747899,8.11260504 C12.012605,7.97394958 11.9571429,7.82773109 11.8336134,7.75714286 Z M6,8.26890756 C4.88823529,8.26890756 3.98319328,7.36386555 3.98319328,6.25210084 C3.98319328,5.14033613 4.88823529,4.23529412 6,4.23529412 C7.11176471,4.23529412 8.01680672,5.14033613 8.01680672,6.25210084 C8.01680672,7.36386555 7.11176471,8.26890756 6,8.26890756 Z" id="Shape"></path>
                    </g>
                </g>
            </g>
        </g>
    </g>
</svg>